<svg width="24" height="24" viewBox="0 0 24 24" fill="none" xmlns="http://www.w3.org/2000/svg">
<g id="icon / settings">
<path id="icon" d="M16.0996 3.48535L17.4111 4.11328C17.163 4.54997 17.0205 5.05461 17.0205 5.59277C17.0207 7.24935 18.3639 8.59262 20.0205 8.59277C20.3224 8.59272 20.6138 8.5469 20.8887 8.46387L21.2129 9.89746L21.54 11.3174C20.103 11.54 19.003 12.7839 19.0029 14.2832C19.0031 15.3074 19.5173 16.2107 20.3008 16.752L19.3877 17.8916L18.4717 19.0449C17.9383 18.5574 17.2307 18.257 16.4512 18.2568C14.7945 18.257 13.4512 19.6001 13.4512 21.2568C13.4512 21.3228 13.4538 21.3882 13.458 21.4531L12 21.4502L10.544 21.4531C10.5481 21.3882 10.5518 21.3228 10.5518 21.2568C10.5517 19.6001 9.20843 18.257 7.55177 18.2568C6.77109 18.257 6.06104 18.5571 5.52735 19.0459L4.61134 17.8916L3.69825 16.752C4.48234 16.2108 4.99794 15.3079 4.99806 14.2832C4.99803 12.7832 3.89691 11.5392 2.45899 11.3174L2.78712 9.89746L3.11036 8.46387C3.38511 8.54682 3.67673 8.59274 3.97852 8.59277C5.63491 8.59238 6.97831 7.2492 6.97852 5.59277C6.97852 5.05437 6.83435 4.5501 6.58595 4.11328L7.89942 3.48535L9.21388 2.84961C9.6554 3.95631 10.7358 4.73912 12 4.73926C13.264 4.73911 14.3426 3.95605 14.7842 2.84961L16.0996 3.48535ZM12 8C9.79105 8.00018 8.00004 9.791 8.00001 12C8.00003 14.209 9.79104 15.9998 12 16C14.209 15.9998 16 14.209 16 12C16 9.79101 14.209 8.00019 12 8Z" fill="white"/>
</g>
</svg>
