<svg xmlns="http://www.w3.org/2000/svg" width="16" height="16" viewBox="0 0 16 16" fill="none">
<g transform="scale(0.666667)">
<path d="M4.0459 4.79984C6.53424 4.80001 8.81752 6.17943 9.97559 8.38187L13.1924 14.501C13.9356 15.9147 15.4018 16.7998 16.999 16.7998H17.5V15L22 18.2002L17.5 21.2002V19.2002H16.999C14.5105 19.2002 12.2265 17.8208 11.0684 15.6182L10.5215 14.5782L9.97559 15.6182C8.81749 17.8205 6.53418 19.2 4.0459 19.2002H3V16.7998H4.0459C5.64286 16.7997 7.10836 15.9145 7.85156 14.501L9.16602 11.9991L7.85156 9.49905C7.10839 8.08547 5.64291 7.20041 4.0459 7.20023H3V4.79984H4.0459ZM22 6.00003L17.5 9.00003V7.20023H16.999C15.4019 7.20023 13.9356 8.08538 13.1924 9.49905L13.1836 9.5137L11.9502 7.09476C13.2063 5.65535 15.0392 4.79984 16.999 4.79984H17.5V2.79984L22 6.00003Z" fill="#FFFFFF"/>
</g>
</svg>
